<?xml version="1.0" encoding="utf-8"?>
<!-- Generator: Adobe Illustrator 14.0.0, SVG Export Plug-In . SVG Version: 6.00 Build 43363)  -->
<!DOCTYPE svg PUBLIC "-//W3C//DTD SVG 1.1//EN" "http://www.w3.org/Graphics/SVG/1.1/DTD/svg11.dtd">
<svg version="1.1" id="activision" xmlns:xml="http://www.w3.org/XML/1998/namespace" xmlns:svg="http://www.w3.org/2000/svg"
	 xmlns="http://www.w3.org/2000/svg" xmlns:xlink="http://www.w3.org/1999/xlink" x="0px" y="0px" width="400px" height="300px"
	 viewBox="0 0 400 300" enable-background="new 0 0 400 300" xml:space="preserve">
<path d="M386.998,172.219c0-4.393-3.562-7.955-7.954-7.956l0,0c0,0,0,0-0.001,0l0,0l0,0c-4.396,0.001-7.955,3.562-7.974,7.956
	c0.018,4.411,3.579,7.973,7.976,7.973c4.392,0,7.955-3.562,7.955-7.973H386.998z M384.014,177.189
	c-1.273,1.274-3.036,2.054-4.97,2.054c-1.951,0-3.7-0.78-4.972-2.054c-1.272-1.271-2.053-3.02-2.053-4.971
	c0-1.932,0.781-3.697,2.053-4.951c1.272-1.273,3.021-2.07,4.971-2.07c1.934,0,3.697,0.797,4.97,2.07
	c1.273,1.254,2.053,3.019,2.053,4.951h0.001C386.066,174.17,385.286,175.919,384.014,177.189z"/>
<rect x="134.492" y="123.635" width="13.978" height="53.318"/>
<polygon points="350.271,143.788 324.944,121.99 324.944,176.697 339.008,176.749 339.008,154.221 364.216,178.92 364.216,123.635 
	350.271,123.635 "/>
<path d="M91.606,163.855c-7.566,0-13.707-6.142-13.707-13.705c0-7.567,6.141-13.708,13.707-13.708c3.359,0,6.429,1.204,8.804,3.206
	l9.059-10.28c-4.801-4.122-11.044-6.633-17.863-6.633c-15.132,0-27.414,12.282-27.414,27.416c0,15.131,12.282,27.395,27.414,27.395
	c6.888,0,13.181-2.527,17.982-6.717l-9.042-10.297C98.138,162.6,95.017,163.855,91.606,163.855z"/>
<polygon points="260.447,104.889 191.218,104.889 175.085,146.993 158.97,104.889 87.467,104.889 80.037,118.885 112.064,118.885 
	112.064,177.156 126.535,177.156 126.535,118.886 148.639,118.886 175.085,189.15 201.55,118.885 268.082,118.885 "/>
<path d="M234.442,136.037c0.713-1.035,3.291-1.035,3.291-1.035h8.99v-11.57h-14.555c-4.768,0-11.789,2.9-11.789,12.604
	c0,12.823,15.81,21.188,14.267,26.344c-0.747,2.478-3.714,2.597-5.276,2.597h-9.602v11.772v0.002h15.708
	c6.701,0,13.419-4.14,13.419-11.978C248.896,149.777,230.54,141.618,234.442,136.037z"/>
<rect x="201.753" y="123.431" width="13.994" height="53.318"/>
<rect x="251.169" y="123.431" width="13.995" height="53.318"/>
<path d="M381.4,172.134V172.1c0.984-0.389,1.407-1.17,1.407-2.221c0-1.34-1-2.443-2.595-2.443h-4.768v8.854h1.935v-3.459h1.951
	c0.983,0,1.34,0.405,1.476,1.339c0.102,0.713,0.069,1.561,0.306,2.12h1.95c-0.338-0.491-0.322-1.526-0.373-2.086
	C382.639,173.306,382.367,172.372,381.4,172.134z M379.518,171.456h-2.138v-2.493h2.138c0.864,0,1.34,0.372,1.34,1.221
	C380.857,171.083,380.382,171.456,379.518,171.456z"/>
<path d="M13.912,176.953H28.79l3.715-9.926h17.354l3.715,9.926h14.894L41.189,98.85L13.912,176.953z M36.745,152.777l4.123-13.638
	l4.139,13.638H36.745z"/>
<path d="M295.173,122.685c-15.165,0-27.464,12.299-27.464,27.447c0,15.166,12.299,27.465,27.464,27.465
	c15.148,0,27.446-12.299,27.446-27.465C322.619,134.983,310.321,122.685,295.173,122.685z M295.174,163.771
	c-7.532,0-13.64-6.106-13.64-13.64c0-7.514,6.107-13.621,13.64-13.621c7.515,0,13.622,6.107,13.622,13.621
	C308.796,157.666,302.688,163.771,295.174,163.771z"/>
</svg>
