<?xml version="1.0" encoding="utf-8"?>
<!-- Generator: Adobe Illustrator 23.0.3, SVG Export Plug-In . SVG Version: 6.00 Build 0)  -->
<svg version="1.1"
	 id="logosvg.com" inkscape:version="0.92.0 r15299" sodipodi:docname="united health group.svg" xmlns:cc="http://creativecommons.org/ns#" xmlns:dc="http://purl.org/dc/elements/1.1/" xmlns:inkscape="http://www.inkscape.org/namespaces/inkscape" xmlns:rdf="http://www.w3.org/1999/02/22-rdf-syntax-ns#" xmlns:sodipodi="http://sodipodi.sourceforge.net/DTD/sodipodi-0.dtd" xmlns:svg="http://www.w3.org/2000/svg"
	 xmlns="http://www.w3.org/2000/svg" xmlns:xlink="http://www.w3.org/1999/xlink" x="0px" y="0px" viewBox="0 0 400 300"
	 style="enable-background:new 0 0 400 300;" xml:space="preserve">
<style type="text/css">
	.st0{fill:#1E3D6A;}
</style>
<path id="logosvg.com_1_" class="st0" d="M315.4,162c0.1,0.2,0.2,0.4,0.2,0.7c0,0.4-0.3,0.8-0.7,0.8h-3c-0.3,0-0.7-0.3-0.9-0.7
	l-5.5-10.8c-0.1-0.3-0.4-0.7-0.4-1.1c0-0.4,0.2-0.7,0.8-0.7l0.6,0c3,0,4.2-1.4,4.2-3.9c0-2.7-1.4-4-4.1-4h-4v20.1
	c0,0.6-0.5,1.1-1.1,1.1H299c-0.6,0-1.1-0.5-1.1-1.1v-21.7c0-0.6,0.5-1.2,1.1-1.2h8.1c4.9,0,8,2.2,8,6.8c0,3.6-2.3,5.3-4.9,6
	L315.4,162z M340,151.5c0,10.7-5.7,12.5-10.5,12.5c-4.6,0-10.5-1.6-10.5-12.5c0-10.8,5.9-12.5,10.5-12.5
	C334.2,139,340,140.6,340,151.5z M335.3,151.5c0-5.3-0.9-9.8-5.8-9.8c-5,0-5.8,4.5-5.8,9.8c0,5.4,0.9,9.8,5.8,9.8
	C334.2,161.3,335.3,157.1,335.3,151.5z M361.5,139.5h-2c-0.6,0-1.1,0.5-1.1,1.2v15.6c0,3-1.1,5.1-4.6,5.1c-2.7,0-4.6-1.1-4.6-5.1
	v-15.6c0-0.6-0.5-1.2-1.1-1.2h-2.4c-0.6,0-1.1,0.5-1.1,1.2V156c0,4.4,2.6,8,9.1,8c5.9,0,9.1-2.9,9.1-8v-15.3
	C362.7,140,362.1,139.5,361.5,139.5z M377.8,139.5h-8.6c-0.6,0-1.1,0.6-1.1,1.2v21.7c0,0.6,0.5,1.1,1.1,1.1h2.4
	c0.6,0,1.1-0.5,1.1-1.1v-20.1h3.7c2.6,0,4.4,1.2,4.4,4.7c0,3.3-1.9,4.5-4.3,4.5h-1.2c-0.9,0-1.3,0.5-1.3,1.1c0,0.6,0.5,1.1,1.4,1.3
	c0.6,0.1,1.5,0.2,2.4,0.2c4.9,0,7.4-2.8,7.4-7.1C385.1,142.3,382.4,139.5,377.8,139.5z M259.4,139.5H257c-0.6,0-1.1,0.6-1.1,1.2v8.7
	h-9.3v-8.7c0-0.6-0.5-1.2-1.1-1.2h-2.3c-0.6,0-1.1,0.6-1.1,1.2v21.6c0,0.7,0.5,1.2,1.2,1.2h2.3c0.7,0,1.2-0.5,1.2-1.2v-9.6h9.3v9.6
	c0,0.7,0.5,1.2,1.2,1.2h2.3c0.7,0,1.2-0.5,1.2-1.2v-21.6C260.5,140,260,139.5,259.4,139.5z M24.5,136.3h-1.8c-0.7,0-1.3,0.6-1.3,1.3
	v17.6c0,3.7-1.5,5.7-5.4,5.7c-2.9,0-5.4-1.2-5.4-5.7v-17.6c0-0.7-0.6-1.3-1.3-1.3H7.2c-0.7,0-1.3,0.6-1.3,1.3v17.1
	c0,4.9,2.6,9.1,10,9.1c6.5,0,9.9-3.4,9.9-9.1v-17.1C25.8,137,25.2,136.3,24.5,136.3z M15.8,163.9L15.8,163.9L15.8,163.9L15.8,163.9z
	 M129.3,151.6c0,9.2-4.9,11.9-10.2,11.9h-8.7c-0.6,0-1.1-0.5-1.1-1.2v-21.6c0-0.6,0.5-1.2,1.1-1.2h8.7
	C124.8,139.5,129.3,142.5,129.3,151.6z M124.8,151.6c0-5-1.3-9.4-6.7-9.4h-4.1v18.4h4.1C123.4,160.7,124.8,156.6,124.8,151.6z
	 M154.1,136.5h-2.1c-0.7,0-1.3,0.6-1.3,1.3v9.9h-11v-9.9c0-0.7-0.6-1.3-1.3-1.3h-2.1c-0.7,0-1.3,0.6-1.3,1.3v24.3
	c0,0.7,0.6,1.3,1.3,1.3h2.1c0.7,0,1.3-0.6,1.3-1.3v-11h11v11c0,0.7,0.6,1.3,1.3,1.3h2.1c0.7,0,1.3-0.6,1.3-1.3v-24.3
	C155.4,137.1,154.8,136.5,154.1,136.5z M218.6,160.1h-8.1v-19.4c0-0.6-0.5-1.2-1.1-1.2h-2.4c-0.6,0-1.1,0.6-1.1,1.2v21.6
	c0,0.7,0.5,1.2,1.2,1.2h11.6c0.6,0,1.1-0.5,1.1-1.1v-1.1C219.7,160.7,219.2,160.1,218.6,160.1z M62,139.5h-2.4
	c-0.6,0-1.1,0.6-1.1,1.2v21.6c0,0.7,0.5,1.2,1.2,1.2h2.3c0.7,0,1.2-0.5,1.2-1.2v-21.6C63.1,140.1,62.6,139.5,62,139.5z M84.1,139.5
	H68.5c-0.6,0-1.1,0.6-1.1,1.2v1.1c0,0.6,0.5,1.1,1.1,1.1H74v19.4c0,0.7,0.5,1.2,1.2,1.2h2.3c0.7,0,1.2-0.5,1.2-1.2v-19.4h5.5
	c0.6,0,1.1-0.5,1.1-1.1v-1.1C85.3,140,84.7,139.5,84.1,139.5z M236.6,139.5h-16.4c-0.6,0-1.1,0.6-1.1,1.2v1.1c0,0.6,0.5,1.1,1.1,1.1
	h5.9v19.4c0,0.7,0.5,1.2,1.2,1.2h2.3c0.7,0,1.2-0.5,1.2-1.2v-19.4h5.8c0.6,0,1.1-0.5,1.1-1.1v-1.1
	C237.7,140,237.2,139.5,236.6,139.5z M104,160.2l-10,0v-7.5h8.5c0.6,0,1.1-0.5,1.1-1.1v-1c0-0.6-0.5-1.2-1.1-1.2H94v-6.7h9.5
	c0.6,0,1.1-0.5,1.1-1.1v-1c0-0.6-0.5-1.2-1.1-1.2h-13c-0.6,0-1.1,0.6-1.1,1.2v21.8c0,0.6,0.5,1,1.1,1H104v0c0.6,0,1.1-0.4,1.1-1
	v-1.1C105.2,160.8,104.6,160.2,104,160.2z M176.3,160.2l-10,0v-7.5h8.5c0.6,0,1.1-0.5,1.1-1.1v-1c0-0.6-0.5-1.2-1.1-1.2h-8.5v-6.7
	h9.5c0.6,0,1.1-0.5,1.1-1.1v-1c0-0.6-0.5-1.2-1.1-1.2h-13c-0.6,0-1.1,0.6-1.1,1.2v21.8c0,0.6,0.5,1,1.1,1h13.5l0,0
	c0.6,0,1.1-0.4,1.1-1v-1.1C177.4,160.8,176.9,160.2,176.3,160.2z M50,139.5h-1.6c-0.6,0-1.1,0.5-1.1,1.2v18.9c0,0-6.7-14.9-8.5-18.9
	c-0.3-0.8-1-1.1-2-1.1h-3.5c-0.6,0-1.1,0.5-1.1,1.2v21.7c0,0.6,0.5,1.2,1.1,1.2h1.6c0.6,0,1.1-0.5,1.1-1.2v-19c0,0,6.8,15.3,8.6,19
	c0.3,0.6,0.8,1.1,1.9,1.1H50c0.6,0,1.1-0.5,1.1-1.2v-21.7C51.2,140,50.7,139.5,50,139.5z M291.5,150.9h-3c-0.6,0-0.9,0.2-0.9,0.7
	v8.9c-0.3,0.1-1.4,0.4-3.5,0.4c-5.4,0-7.5-4.4-7.5-10.9c0-4.7,1.1-10.9,7.5-10.9c3.4,0,5.4,2.1,5.8,2.5c0.2,0.2,0.6,0.7,1,0.7
	c0.5,0,0.6-0.5,0.6-0.8c0.1-0.6,0.3-1.7,0.4-2.4c0-0.1,0.1-0.7,0.1-0.9c0-0.4-0.1-0.6-0.9-0.9c-0.5-0.2-2.9-1.3-7.1-1.3
	c-9.1,0-12.8,5.3-12.8,14.1c0,11.2,6.1,14.1,12.8,14.1c4.1,0,6.1-0.8,7.4-1.4l0,0c0.8-0.3,0.8-0.4,0.8-1.4v-9.7
	C292.3,151.1,292.1,150.9,291.5,150.9z M201.3,162c0.1,0.2,0.1,0.4,0.1,0.7c0,0.5-0.3,0.9-0.9,0.9h-2.3c-1.1,0-1.5-0.5-1.7-1.1
	l-1.4-4.5h-8.7l-1.4,4.5c-0.2,0.7-0.8,1.1-1.7,1.1h-1.6c-0.4,0-0.8-0.3-0.8-0.8c0-0.2,0.1-0.3,0.1-0.6l6.9-21.5
	c0.2-0.7,0.7-1.1,1.6-1.1h3c0.9,0,1.4,0.4,1.7,1.1L201.3,162L201.3,162z M194.2,154.9l-3.4-11.9l-3.6,11.9H194.2z M394.2,142.4
	c0,1.9-1.5,3.5-3.5,3.5c-1.9,0-3.4-1.5-3.4-3.5c0-1.9,1.6-3.5,3.4-3.5C392.6,139,394.2,140.5,394.2,142.4z M393.5,142.4
	c0-1.7-1.2-2.9-2.8-2.9c-1.6,0-2.8,1.3-2.8,2.9s1.2,2.9,2.8,2.9C392.3,145.4,393.5,144.1,393.5,142.4z M391.3,142.7l1.1,1.8h-0.7
	l-1.1-1.8H390v1.8h-0.7l0-4h1.5c0.9,0,1.4,0.4,1.4,1.1C392.3,142.2,391.9,142.7,391.3,142.7z M390.8,142.1c0.5,0,0.8-0.1,0.8-0.6
	c0-0.5-0.4-0.6-0.8-0.6H390v1.2H390.8z"/>
</svg>
