<?xml version="1.0" encoding="utf-8"?>
<!-- Generator: Adobe Illustrator 23.0.3, SVG Export Plug-In . SVG Version: 6.00 Build 0)  -->
<svg version="1.1"
	 id="logosvg_x2C_com" inkscape:version="0.92.3 (2405546, 2018-03-11)" sodipodi:docname="wells fargo.svg" xmlns:cc="http://creativecommons.org/ns#" xmlns:dc="http://purl.org/dc/elements/1.1/" xmlns:inkscape="http://www.inkscape.org/namespaces/inkscape" xmlns:rdf="http://www.w3.org/1999/02/22-rdf-syntax-ns#" xmlns:sodipodi="http://sodipodi.sourceforge.net/DTD/sodipodi-0.dtd" xmlns:svg="http://www.w3.org/2000/svg"
	 xmlns="http://www.w3.org/2000/svg" xmlns:xlink="http://www.w3.org/1999/xlink" x="0px" y="0px" viewBox="0 0 400 300"
	 style="enable-background:new 0 0 400 300;" xml:space="preserve">
<style type="text/css">
	.st0{fill:#B31E30;}
	.st1{fill:#FFCC02;}
</style>
<path id="red" inkscape:connector-curvature="0" class="st0" d="M56.8,293.2h286.4V6.8H56.8V293.2z"/>
<path id="yellow" inkscape:connector-curvature="0" class="st1" d="M160,96.9V111h3.2c4.1,0,5.9-2,5.9-7.5v-0.9h4.7v21.8h-4.7v-0.9
	c0-5.5-1.8-7.6-5.9-7.6H160v15.7h13.5c6.1,0,8.4-4.1,9.1-11.8h4.9v16.8h-44.3v-5h3.8c2.3,0,3.6-0.6,3.6-4.7v-26.3
	c0-2.9-1.3-3.8-4.5-3.8h-1.4c-3.2,0-4.8,0.8-5.9,4.1l-12.2,35.7h-9.3l-7.1-23.3h-0.1l-7.9,23.3h-9.4L80.1,99.3
	c-0.6-1.8-1.5-2.4-4.1-2.4h-0.9v-5h19.6v5h-2.8c-1.5,0-2.1,0.9-2.1,1.8c0,0.7,0.2,1.5,0.6,2.4l8.5,25h0.1l8.1-23.5l-1.1-3.2
	c-0.7-2-2-2.5-4-2.5h-1.6v-5h20.2v5h-3.6c-1.4,0-1.9,0.6-1.9,1.5c0,0.7,0.3,1.6,0.6,2.3l7.4,25h0.1l8.6-24.4
	c0.3-0.8,0.5-1.5,0.5-2.3c0-1.1-0.5-2-2.9-2h-3.3v-5h61.4v15.3h-5c-1-6.5-1.6-10.3-10.6-10.3H160z M233.7,136.7v-16.8h-5.2
	c-0.7,7.7-2.1,11.8-9.1,11.8h-10.2v-31.7c0-2.5,1-3.1,4-3.1h3.8v-5h-24.8v5h3.9c2.7,0,3.6,0.9,3.6,2.9v28.9c0,2.4-1.3,3-3.2,3h-4.3
	v5H233.7z M279.6,136.7v-16.8h-5.2c-0.7,7.7-2.1,11.8-9.1,11.8h-10.2v-31.7c0-2.5,1-3.1,4-3.1h3.8v-5h-24.8v5h3.9
	c2.7,0,3.6,0.9,3.6,2.9v28.9c0,2.4-1.3,3-3.2,3h-4.4v5H279.6z M313.7,95.3c-0.4-0.4-4.6-4.7-12.6-4.7c-8.5,0-17,4.3-17,13.5
	c0,8.3,6.6,12.1,14.3,13.8c2.5,0.5,4,0.8,6.3,1.3c5.7,1.2,9.5,3,9.5,6.9c0,3-3.2,6.3-9.5,6.3c-8.8,0-14.1-4.9-15.2-12.5h-5.2v16.8
	h4.6l1.5-4c1.1,1,5.4,5.3,13.6,5.3c10.4,0,18.3-4.6,18.3-13.8c0-8.9-7.3-12.7-16.3-14.5c-1.6-0.4-3.1-0.6-4.7-1
	c-5.6-1.2-9.1-2.6-9.1-6.6c0-3.5,3.7-5.8,9.2-5.8c8.3,0,11.5,5.3,13.2,10.9h5V92H316L313.7,95.3z M108.1,206.6v-5h-3.4
	c-3.1,0-4.3-0.9-4.3-3.5v-12.2h2.8c4.2,0,6,1.8,6,6.6v1.5h4.7v-20.6h-4.7v0.9c0,3.5-1.3,6.7-5.6,6.7h-3.2v-14.1h8.8
	c9.9,0,11,5,11.6,10.3h4.8v-15.3H83.3v5h4.5c2,0,3.2,0.9,3.2,2.5v28.9c0,1.9-1,3.3-3.4,3.3h-4.2v5H108.1z M295.7,160.4
	c-14.7,0-24.4,10.3-24.4,23.8c0,13.5,9.7,23.8,24.4,23.8c14.7,0,24.4-10.4,24.4-23.8C320.1,170.7,310.4,160.4,295.7,160.4
	 M295.7,165.7c10.6,0,13.8,8.8,13.8,18.5s-3.2,18.5-13.8,18.5c-10.7,0-13.8-8.8-13.8-18.5S285,165.7,295.7,165.7 M254.4,165.4
	c-1-0.9-5.2-5-13.5-5c-13.3,0-21.6,10.1-21.6,23.8c0,13.8,8.5,23.8,21.6,23.8c8.4,0,13-3.9,14.1-4.8l2.5,3.4h4.6V191
	c0-2.6,1-3.4,3.6-3.4h1.2v-5h-20.7v5h3.1c2.2,0,3.6,1,3.6,3.2v2.6c0,5.1-3.2,8.7-10,8.7c-8.6,0-12.9-7.7-12.9-18
	c0-10.1,4.3-17.9,12.6-17.9c8.7,0,11.6,8.1,12.6,10.8h5.5v-15.3H256L254.4,165.4z M217.1,196.1v1.2c0,7.7-3.7,10.7-9.3,10.7
	c-6.5,0-8.7-3.2-8.7-9.3v-2.3c0-7.7-3.3-10.8-10.8-10.8h-3.6v13.5c0,1.8,0.8,2.4,2.8,2.4h4.9v5h-44.8v-5h5c1.4,0,1.9-0.3,1.9-1.1
	c0-0.4-0.1-1.1-0.4-1.8c-0.2-0.6-2.4-6.4-2.4-6.4h-16c0,0-2,5.3-2.3,6.2c-0.2,0.7-0.4,1.2-0.4,1.9c0,1,0.8,1.3,2.1,1.3h4.8v5h-21.1
	v-5c3.6,0,5.8-0.5,7.1-3.6l14.3-36.1h8.6l14.7,36.1c1.2,3.2,3.5,3.6,7.1,3.6h1.8c1.9,0,2.8-0.6,2.8-2.4v-29.9c0-1.8-0.7-2.4-2.8-2.4
	h-4.7v-5h29.4c9.8,0,14.4,4.6,14.4,11.6c0,8.7-8.6,10.4-12.7,10.6v0.1c4.7,0.4,8.7,2.3,8.7,9.2v2.6c0,4.6,1,5.6,2.6,5.6
	c1.6,0,2.4-1.3,2.4-4.3v-1.2H217.1z M150,187.2l-6-16.3h-0.2l-6,16.3H150z M202.2,173.7c0-3.9-2.8-6.9-9.1-6.9h-8.3v13.8h8.3
	C198.8,180.6,202.2,178,202.2,173.7"/>
</svg>
